<svg width="100" height="100" xmlns="http://www.w3.org/2000/svg">
 <g>
  <title>Layer 1</title>
  <g id="svg_12">
   <g stroke="null">
    <path stroke="null" d="m8.36511,6.22712l6.48934,0l0,1.40006l-6.48934,0l0,-1.40006z" fill="#FF6900" p-id="4836"/>
    <path stroke="null" d="m18.0688,1.15189l-4.30601,0l1.03102,1.40006l3.1537,0.93338c0.60648,0.17501 0.97037,0.70003 0.97037,1.22505l0,4.49187c0,0.58336 -0.36389,1.05005 -0.97037,1.22505l-3.1537,0.93338l-0.97037,1.4584l4.30601,0c1.81944,0 3.21435,-1.40006 3.21435,-3.09181l0,-5.48358c0,-1.69174 -1.45555,-3.09181 -3.275,-3.09181l0,0zm-12.85739,9.33376c-0.60648,-0.17501 -0.97037,-0.70003 -0.97037,-1.22505l0,-4.55021c0,-0.58336 0.36389,-1.05005 0.97037,-1.22505l3.1537,-0.93338l1.03102,-1.40006l-4.30601,0c-1.75879,0 -3.21435,1.40006 -3.21435,3.09181l0,5.42525c0,1.75008 1.45555,3.09181 3.21435,3.09181l4.30601,0l-1.03102,-1.40006l-3.1537,-0.87504zm66.71287,-8.86707c-1.88009,0 -3.39629,1.4584 -3.39629,3.20848l0,4.49187c0,1.75008 1.5162,3.20848 3.39629,3.20848c1.88009,0 3.39629,-1.4584 3.39629,-3.20848l0,-0.05834l-1.45555,0l0,0.05834c0,0.99171 -0.84907,1.80842 -1.94074,1.80842c-1.03102,0 -1.94074,-0.8167 -1.94074,-1.80842l0,-4.49187c0,-0.99171 0.84907,-1.80842 1.94074,-1.80842c1.03102,0 1.94074,0.8167 1.94074,1.80842l0,0.05834l1.45555,0l0,-0.05834c0,-1.75008 -1.5162,-3.20848 -3.39629,-3.20848zm9.52175,2.85846c-1.57685,0 -2.85046,1.16672 -2.91111,2.62512l0,2.80013c0.06065,1.4584 1.33426,2.62512 2.91111,2.62512c1.57685,0 2.85046,-1.16672 2.91111,-2.62512l0,-2.74179c-0.06065,-1.51674 -1.33426,-2.68345 -2.91111,-2.68345l0,0zm1.45555,5.25024c0,0.75837 -0.66713,1.40006 -1.45555,1.40006c-0.78842,0 -1.45555,-0.58336 -1.45555,-1.40006l0,-2.39178c0,-0.75837 0.66713,-1.40006 1.45555,-1.40006c0.78842,0 1.45555,0.6417 1.45555,1.40006l0,2.39178zm-6.85323,-8.1087l1.45555,0l0,10.73382l-1.45555,0l0,-10.73382zm-40.39161,2.85846l1.45555,0l0,7.81702l-1.45555,0l0,-7.81702zm-2.91111,-2.85846l1.45555,0l0,10.73382l-1.45555,0l0,-10.73382zm-3.69953,0l-1.81944,0l-2.97176,10.73382l1.45555,0l0.78842,-2.85846l3.21435,0l0.78842,2.80013l1.45555,0l-2.91111,-10.67548l0,0zm-2.18333,6.47529l1.21296,-4.43353l1.21296,4.43353l-2.42592,0zm62.95269,1.75008c0,0.75837 -0.66713,1.40006 -1.45555,1.40006c-0.78842,0 -1.45555,-0.6417 -1.45555,-1.40006l0,-5.36691l-1.45555,0l0,5.60025c0,1.34173 1.15231,2.45011 2.54722,2.45011c0.24259,0 0.48518,-0.05834 0.72778,-0.11667c0.1213,-0.05834 0.30324,-0.11667 0.42454,-0.17501c0.24259,-0.11667 0.42454,-0.23334 0.60648,-0.40835l0.06065,-0.05834l0,0.58336l1.45555,0l0,-7.87536l-1.45555,0l0,5.36691l0,0zm-54.15872,-8.22537l1.45555,0l0,1.40006l-1.45555,0l0,-1.40006zm6.1861,2.85846c-0.66713,0 -1.27361,0.23334 -1.75879,0.70003l-0.06065,0.05834l0,-3.61683l-1.45555,0l0,10.73382l1.45555,0l0,-0.58336l0.06065,0.05834c0.48518,0.46669 1.09166,0.70003 1.75879,0.70003c1.3949,0 2.54722,-1.10838 2.54722,-2.45011l0,-3.15014c0,-1.34173 -1.15231,-2.45011 -2.54722,-2.45011l0,0zm1.09166,5.36691c0,0.75837 -0.66713,1.40006 -1.45555,1.40006s-1.45555,-0.6417 -1.45555,-1.40006l0,-2.68345c0,-0.75837 0.66713,-1.40006 1.45555,-1.40006s1.45555,0.6417 1.45555,1.40006l0,2.68345zm12.6148,-5.36691c-0.66713,0 -1.27361,0.23334 -1.75879,0.70003l-0.1213,0.05834l0,-3.61683l-1.45555,0l0,10.73382l1.45555,0l0,-0.58336l0.06065,0.05834c0.48518,0.46669 1.09166,0.70003 1.75879,0.70003c1.3949,0 2.54722,-1.10838 2.54722,-2.45011l0,-3.15014c0,-1.34173 -1.15231,-2.45011 -2.48657,-2.45011l0,0zm1.03102,5.36691c0,0.75837 -0.66713,1.40006 -1.45555,1.40006c-0.78842,0 -1.45555,-0.6417 -1.45555,-1.40006l0,-2.68345c0,-0.75837 0.66713,-1.40006 1.45555,-1.40006c0.78842,0 1.45555,0.6417 1.45555,1.40006l0,2.68345zm40.08837,-8.22537l0,3.61683l-0.06065,-0.05834c-0.48518,-0.46669 -1.09166,-0.70003 -1.75879,-0.70003c-1.3949,0 -2.54722,1.10838 -2.54722,2.45011l0,3.15014c0,1.34173 1.15231,2.39178 2.54722,2.39178c0.66713,0 1.27361,-0.23334 1.75879,-0.70003l0.06065,-0.05834l0,0.58336l1.45555,0l0,-10.67548l-1.45555,0l0,0zm0,8.22537c0,0.75837 -0.66713,1.40006 -1.45555,1.40006c-0.78842,0 -1.45555,-0.6417 -1.45555,-1.40006l0,-2.68345c0,-0.75837 0.66713,-1.40006 1.45555,-1.40006c0.78842,0 1.45555,0.6417 1.45555,1.40006l0,2.68345zm-45.5467,-3.03347c-0.06065,-0.40835 -0.24259,-0.8167 -0.48518,-1.16672c-0.54583,-0.70003 -1.33426,-1.10838 -2.18333,-1.16672l-0.18194,0c-0.66713,0 -1.33426,0.23334 -1.88009,0.6417c-0.54583,0.40835 -0.84907,0.99171 -1.03102,1.63341l1.45555,0c0.1213,-0.6417 0.72778,-1.10838 1.3949,-1.10838c0.36389,0 0.72778,0.11667 1.03102,0.40835c0.24259,0.23334 0.42454,0.58336 0.42454,0.93338l0,0.6417l-2.06203,0c-1.3949,0 -2.54722,1.10838 -2.54722,2.45011c0,1.10838 0.78842,2.1001 1.88009,2.33344l0.06065,0c0.06065,0 0.1213,0 0.1213,0.05834l0.60648,0c0.36389,0 0.66713,-0.05834 0.90972,-0.11667c0.36389,-0.11667 0.72778,-0.29168 1.03102,-0.58336l0.06065,-0.05834l0,0.58336l1.45555,0l0,-5.1919c0,-0.05834 0,-0.11667 -0.06065,-0.29168l0,0zm-1.45555,2.9168c0,0.75837 -0.54583,1.40006 -1.33426,1.51674c-0.1213,0 -0.24259,0.05834 -0.30324,0.05834c-0.24259,0 -0.48518,-0.05834 -0.72778,-0.17501c-0.06065,-0.05834 -0.1213,-0.05834 -0.18194,-0.11667c-0.06065,-0.05834 -0.18194,-0.11667 -0.24259,-0.23334c-0.18194,-0.23334 -0.24259,-0.46669 -0.24259,-0.75837c0,-0.70003 0.60648,-1.28339 1.33426,-1.28339l1.75879,0l0,0.99171l-0.06065,0zm15.16202,-2.85846c-0.06065,-0.40835 -0.24259,-0.8167 -0.48518,-1.16672c-0.54583,-0.70003 -1.33426,-1.10838 -2.18333,-1.16672l-0.18194,0c-0.66713,0 -1.33426,0.23334 -1.88009,0.6417c-0.54583,0.40835 -0.84907,0.99171 -1.03102,1.63341l1.45555,0c0.1213,-0.6417 0.72778,-1.10838 1.3949,-1.10838c0.36389,0 0.72778,0.11667 1.03102,0.40835c0.24259,0.23334 0.42454,0.58336 0.42454,0.93338l0,0.6417l-2.06203,0c-1.3949,0 -2.54722,1.10838 -2.54722,2.45011c0,1.10838 0.78842,2.1001 1.88009,2.33344l0.06065,0c0.06065,0 0.1213,0 0.1213,0.05834l0.60648,0c0.36389,0 0.66713,-0.05834 0.90972,-0.11667c0.36389,-0.11667 0.72778,-0.29168 1.03102,-0.58336l0.06065,-0.05834l0,0.58336l1.45555,0l0,-5.1919c-0.06065,-0.11667 -0.06065,-0.17501 -0.06065,-0.29168l0,0zm-1.45555,2.85846c0,0.75837 -0.54583,1.40006 -1.33426,1.51674c-0.1213,0 -0.24259,0.05834 -0.30324,0.05834c-0.24259,0 -0.48518,-0.05834 -0.72778,-0.17501c-0.06065,-0.05834 -0.1213,-0.05834 -0.18194,-0.11667c-0.06065,-0.05834 -0.18194,-0.11667 -0.24259,-0.23334c-0.18194,-0.23334 -0.24259,-0.46669 -0.24259,-0.75837c0,-0.70003 0.60648,-1.28339 1.33426,-1.28339l1.75879,0l0,0.99171l-0.06065,0z" fill="#FF6900" p-id="4837"/>
   </g>
   <g stroke="null">
    <path stroke="null" d="m26.60781,31.91009l12.36506,0c0,-2.29138 -0.36502,-4.58277 -1.14069,-6.50753l-15.42211,0c-4.74526,0 -8.53235,3.8037 -8.53235,8.56977l0,16.4063c1.91636,0.54993 4.01522,0.96238 6.06846,0.96238l0.36502,0l0,-13.10671c0,-4.8119 1.50571,-6.32421 6.2966,-6.32421l0,0zm31.34611,19.29344c0,3.71204 2.96579,6.69084 6.61599,6.69084s6.66162,-2.9788 6.66162,-6.64501l0,-0.04583c0,-3.71204 -2.96579,-6.69084 -6.61599,-6.69084c-3.69583,0 -6.66162,2.9788 -6.66162,6.64501l0,0.04583zm7.98482,28.64228l-39.33093,0c-4.74526,0 -6.47911,-0.18331 -6.47911,-4.94939l0,-17.00206l-0.36502,0c-1.91636,0.18331 -4.01522,0 -5.88595,-0.54993l0,24.83858c0,4.76608 3.78709,8.6156 8.53235,8.6156l48.86709,0l0,-5.54515c0,-2.93297 -2.50951,-5.40766 -5.33842,-5.40766z" fill="#FF6A00" p-id="5051"/>
    <path stroke="null" d="m86.10611,86.53665l0,-52.70179c0,-8.6156 -5.88595,-8.6156 -10.63121,-8.6156l-26.64648,0c-1.73385,0 -3.23955,1.329 -3.23955,3.25376l0,0.36662l0,-0.18331c0.18251,0.96238 0.18251,1.92476 0.18251,2.84131l25.46016,0c4.74526,0 6.47911,1.74145 6.47911,6.50753l0,44.0862c0,4.76608 -1.73385,8.6156 -6.47911,8.6156l0,3.25376c0,2.29138 0.95818,4.03283 4.01522,4.03283l3.23955,0c8.34984,0.18331 7.6198,-6.69084 7.6198,-11.45691zm-61.77968,-28.87142c12.18255,-2.10807 21.49057,-12.78591 21.49057,-25.57183l0,-0.36662l-3.78709,0c-1.73385,0 -3.05704,1.14569 -3.23955,2.84131c-1.14069,9.34884 -9.12551,16.58961 -18.61603,16.81875l0,6.87415c1.14069,0 2.28138,-0.18331 3.42207,-0.36662c0.31939,0 0.5019,0 0.73004,-0.22914z" fill="#FF6A00" p-id="5052"/>
   </g>
  </g>
 </g>

</svg>